<?xml version="1.0" encoding="utf-8"?>
<!-- Generator: Adobe Illustrator 23.0.1, SVG Export Plug-In . SVG Version: 6.00 Build 0)  -->
<svg version="1.1" id="Layer_1" xmlns="http://www.w3.org/2000/svg" xmlns:xlink="http://www.w3.org/1999/xlink" x="0px" y="0px" viewBox="0 0 80 15.566" style="enable-background:new 0 0 80 15.566;" xml:space="preserve" class="h3lce029od92nuod5btvi7" >
<style type="text/css">.h3lce029od92nuod5btvi7 .st0{fill:url(#SVGID_1_);} .h3lce029od92nuod5btvi7 .st1{fill:url(#SVGID_2_);} </style>
<g>
	<g>
		<path d="M13,1.40619h8.96v2.04h-6.64v2.96h4.4v2h-4.4v3.32h6.84v2.04H13V1.40619z"/>
		<path d="M21.52,4.96619h2.36l2.08,6.12l1.92-6.12h2.32l-3.2,8.76h-2.12L21.52,4.96619z"/>
		<path d="M29.84,9.36619c0-2.68,1.84-4.56,4.52-4.56c2.64,0,4.48,1.88,4.48,4.56c0,2.64-1.88,4.52-4.56,4.52
			C31.68,13.92619,29.84,12.04619,29.84,9.36619z M36.52,9.44619v-0.08c0-1.68-0.8-2.68-2.16-2.68s-2.16,1-2.16,2.68v0.08
			c0,1.64,0.8,2.6,2.12,2.6C35.68,12.04619,36.52,11.08619,36.52,9.44619z"/>
		<path d="M39.92,1.24619h2.32v12.52h-2.32V1.24619z"/>
		<path d="M43.56,10.24619v-5.28h2.32v5.12c0,1.16,0.56,1.84,1.6,1.84c1.2,0,1.72-1.04,1.72-2.52v-4.44h2.32v8.76H49.2v-1.24
			c-0.48,0.92-1.28,1.4-2.4,1.4C44.8,13.92619,43.56,12.48619,43.56,10.24619z"/>
		<path d="M53.6,11.40619v-4.56h-1.24v-1.84h1.24v-1.68l2.24001-1.28v2.92h1.72v1.84h-1.76v4.4c0,0.44,0.2,0.6,0.64,0.64h1.04v1.92
			h-1.8C54,13.64619,53.64,12.88619,53.6,11.40619z"/>
		<path d="M58.64,1.44619h2.4v2.24h-2.4V1.44619z M58.68,4.96619H61v8.76h-2.32V4.96619z"/>
		<path d="M62.04,9.36619c0-2.68,1.84-4.56,4.52-4.56c2.64,0,4.48,1.88,4.48,4.56c0,2.64-1.88,4.52-4.56,4.52
			C63.84,13.92619,62.04,12.04619,62.04,9.36619z M68.72,9.44619v-0.08c0-1.68-0.8-2.68-2.16-2.68c-1.36,0-2.16,1-2.16,2.68v0.08
			c0,1.64,0.8,2.6,2.12,2.6C67.88,12.04619,68.72,11.08619,68.72,9.44619z"/>
		<path d="M72.08,4.96619h2.32v1.44c0.48-1.04,1.32-1.6,2.56-1.6c1.92,0,3.04,1.28,3.04,3.68v5.28h-2.32v-5.16
			c0-1.24-0.48-1.84-1.56-1.84c-1.08,0-1.76,0.88-1.76,2.52v4.48h-2.32L72.08,4.96619L72.08,4.96619z"/>
	</g>
	<path d="M9.72,15.36619c-0.4,0-0.72-0.32-0.72-0.72c0-0.4,0.32-0.72,0.72-0.72c0.4,0,0.72,0.32,0.72,0.72
		C10.44,15.04619,10.12,15.36619,9.72,15.36619 M9.72,13.72619c-0.48,0-0.88,0.4-0.88,0.92s0.4,0.92,0.88,0.92
		c0.48,0,0.92-0.4,0.92-0.92S10.24,13.72619,9.72,13.72619"/>
	<g>
		<path d="M8.28,7.12619c0.72,0.04,1.52,0,2.36-0.08c-0.12-1.76-0.68-3.2-1.56-4.32c0.04,0.32,0.08,0.64,0.08,0.96
			C9.16,4.92619,8.84,6.12619,8.28,7.12619z"/>
		<path d="M7.96,7.64619c-1.28,1.92-3.48,3.2-5.96,3.2c-0.16,0-0.36,0-0.52-0.04c-0.64,0.96-1.04,2.04-1.48,3.08
			c4.44,2.36,10.2-0.12,10.64-6.2C9.64,7.60619,8.76,7.60619,7.96,7.64619z"/>
		
			<radialGradient id="SVGID_1_" cx="953.19232" cy="265.27582" r="6.07256" fx="947.13336" fy="265.6821" gradientTransform="matrix(-0.8331 -0.5531 -0.4978 0.7498 930.73517 331.88129)" gradientUnits="userSpaceOnUse">
			<stop  offset="0.1698" style="stop-color:#ECECEC"/>
			<stop  offset="0.2146" style="stop-color:#D6D6D6"/>
			<stop  offset="0.3543" style="stop-color:#969696"/>
			<stop  offset="0.4875" style="stop-color:#606060"/>
			<stop  offset="0.6108" style="stop-color:#373737"/>
			<stop  offset="0.722" style="stop-color:#191919"/>
			<stop  offset="0.8171" style="stop-color:#060606"/>
			<stop  offset="0.8851" style="stop-color:#000000"/>
		</radialGradient>
		<path class="st0" d="M0,0.88619c1.24,2.8,2.16,6.04,8.28,6.24c0.56-1.04,0.88-2.2,0.88-3.44c0-0.32-0.04-0.64-0.08-0.96
			C7-0.03381,3.16-0.79381,0,0.88619z"/>
		
			<radialGradient id="SVGID_2_" cx="916.32874" cy="265.1684" r="2.55316" fx="914.92822" fy="265.19812" gradientTransform="matrix(-0.4226 -0.9063 -2.3873 1.1132 1025.01099 544.51459)" gradientUnits="userSpaceOnUse">
			<stop  offset="0.1155" style="stop-color:#ECECEC"/>
			<stop  offset="0.1694" style="stop-color:#E1E1E1"/>
			<stop  offset="0.2654" style="stop-color:#C2C2C2"/>
			<stop  offset="0.3924" style="stop-color:#909090"/>
			<stop  offset="0.5455" style="stop-color:#4C4C4C"/>
			<stop  offset="0.6987" style="stop-color:#000000"/>
		</radialGradient>
		<path class="st1" d="M7.96,7.64619c-3.68,0.16-5.4,1.52-6.48,3.16c0.16,0,0.36,0.04,0.52,0.04
			C4.52,10.84619,6.68,9.56619,7.96,7.64619z"/>
	</g>
	<g>
		<path d="M9.4,14.48619H9.28v-0.08h0.4v0.08H9.56v0.4H9.44C9.4,14.88619,9.4,14.48619,9.4,14.48619z"/>
		<path d="M9.68,14.40619h0.16l0.08,0.32l0.08-0.32h0.16v0.48h-0.12v-0.36l-0.04,0.36H9.92l-0.12-0.36v0.36H9.72v-0.48H9.68z"/>
	</g>
</g>
</svg>
