<?xml version="1.0" encoding="utf-8"?>
<!-- Generator: Adobe Illustrator 23.0.1, SVG Export Plug-In . SVG Version: 6.00 Build 0)  -->
<svg version="1.1" id="Layer_1" xmlns="http://www.w3.org/2000/svg" xmlns:xlink="http://www.w3.org/1999/xlink" x="0px" y="0px" viewBox="0 0 80 13.98" style="enable-background:new 0 0 80 13.98;" xml:space="preserve" class="h6bpsbxcteen871acf4in" >
<style type="text/css">.h6bpsbxcteen871acf4in .st0{fill:#F16522;} .h6bpsbxcteen871acf4in .st1{fill:url(#SVGID_1_);} .h6bpsbxcteen871acf4in .st2{fill:url(#SVGID_2_);} .h6bpsbxcteen871acf4in .st3{clip-path:url(#SVGID_4_);} </style>
<g>
	<polygon class="st0" points="22.68383,13.97995 29.44101,5.98136 27.5507,5.17727 25.80144,5.98136 19.07247,13.97995 	"/>
	<path d="M6.64433,11.48304L3.83707,4.18979l-1.83389,7.29325H0l0.16928-0.32446c0.09875-0.18339,0.18339-0.39499,0.28214-0.57838
		c0.05643-0.2116,1.94675-7.67413,1.94675-7.67413c0.09875-0.39499,0.14107-0.78998,0.14107-1.21319v-0.2116h3.89349
		l2.73673,7.13807l1.79157-7.12396h2.03139l-0.18339,0.32446c-0.11285,0.2116-0.2116,0.39499-0.29624,0.57838
		c-0.07053,0.18339-2.29942,9.11303-2.29942,9.11303H6.64433V11.48304z"/>
	<path d="M11.62405,11.48304l0.16928-0.32446c0.11285-0.18339,0.18339-0.39499,0.28214-0.57838
		c0.07053-0.2116,1.96085-7.66002,1.96085-7.66002c0.09875-0.39499,0.14107-0.8182,0.14107-1.2273v-0.2116h8.30894l-0.50785,2.00317
		c0,0-0.39499-0.32446-1.28372-0.32446h-3.44207l-0.6066,2.4687h3.76653c0.4232,0,0.93105-0.16928,0.93105-0.16928l-0.52195,2.01728
		c0,0-0.32446-0.18339-0.88873-0.18339h-3.72421l-0.64892,2.58156h4.04867c0.70534,0,1.07212-0.39499,1.07212-0.39499
		l-0.50785,2.04549h-8.54876V11.48304z"/>
	<path d="M33.91289,11.48304l0.16928-0.32446c0.09875-0.18339,0.09875-0.18339,0.28214-0.57838
		c0.09875-0.2116,1.90442-7.44842,1.90442-7.44842h-2.6803l0.4232-1.6505h8.61929l-0.42321,1.6505h-2.6803
		c0,0-1.74925,6.98289-1.83389,7.44842c-0.02821,0.07053-0.07053,0.36678-0.02821,0.64892l0.04232,0.25392H33.91289z"/>
	<path d="M41.03685,11.48304l0.50785-1.97496c0,0,0.32446,0.32446,0.76177,0.32446h4.76812
		c0.28214,0,0.42321-0.11285,0.49374-0.39499l0.32446-1.25551c0.02822-0.11285,0.04232-0.18339,0.04232-0.2116
		c0-0.02821,0-0.09875-0.23982-0.09875h-3.58314c-1.42479,0-1.72104-0.78998-1.72104-1.4389
		c0-0.23982,0.02821-0.46553,0.09875-0.74766l0.50785-2.07371c0.16928-0.70534,0.49374-1.2273,0.93105-1.57997
		s1.0298-0.50785,1.70693-0.50785h7.10986l-0.50785,2.00317c0,0-0.32446-0.35267-0.86052-0.35267h-4.69758
		c-0.25392,0-0.39499,0.11285-0.46552,0.39499l-0.23982,0.93105c-0.02822,0.11285-0.04232,0.18339-0.04232,0.2116
		c0,0.02821,0,0.09875,0.23982,0.09875h3.58314c1.42479,0,1.72104,0.78998,1.72104,1.46711
		c0,0.23982-0.02821,0.49374-0.09875,0.74766l-0.60659,2.36995c-0.35267,1.39658-1.21319,2.11603-2.60977,2.11603h-7.12396V11.48304
		z"/>
	<path d="M51.12325,11.48304l0.16928-0.32446c0.11285-0.18339,0.21161-0.39499,0.28214-0.57838
		c0.14107-0.43731,1.96085-7.66002,1.96085-7.66002c0.09875-0.39499,0.14107-0.8182,0.14107-1.2273v-0.2116h7.50485
		c1.74925,0,2.11603,0.8182,2.11603,1.49533c0,0.2116-0.02822,0.43731-0.09875,0.71945l-0.57838,2.28531
		c-0.35267,1.39658-1.36837,2.11603-3.00476,2.11603h-4.11921c0,0-0.57838,2.6803-0.60659,2.86369
		c-0.04232,0.29624,0.04232,0.50785,0.04232,0.50785h-3.79474v0.01411H51.12325z M58.75507,6.44689
		c0.32446,0,0.43731-0.07053,0.49374-0.11285c0.04232-0.04232,0.14107-0.16928,0.23982-0.57838l0.49374-1.97496
		C60.0529,3.49855,60.0529,3.3857,60.0529,3.35748c0-0.04232,0-0.11285-0.04232-0.14107
		C59.98236,3.1882,59.91183,3.1741,59.68612,3.1741h-2.96244l-0.8182,3.301h2.86369V6.44689H58.75507z"/>
	<path d="M61.78804,11.48304l0.16928-0.29624c0.09875-0.18339,0.18339-0.39499,0.28214-0.57838
		c0.07054-0.2116,2.17246-8.12555,2.18657-8.90143v-0.2116h3.68189c0,0-0.16929,0.2116-0.23982,0.50785
		c-0.04232,0.18339-2.2571,8.37947-2.28531,8.57697c-0.02822,0.18339-0.04232,0.35267-0.04232,0.50785
		c0,0.11286,0,0.16928,0,0.18339l0.04232,0.25392h-3.79475V11.48304z"/>
	<path d="M73.6237,11.48304l-2.80727-7.29325l-1.83389,7.29325h-2.00317l0.16928-0.32446
		c0.09875-0.18339,0.18339-0.39499,0.28214-0.57838c0.07053-0.2116,1.96085-7.66002,1.96085-7.66002
		c0.09875-0.39499,0.14107-0.78998,0.14107-1.21319v-0.2116h3.89349l2.75083,7.12396l1.79158-7.12396H80l-0.18339,0.32446
		c-0.11285,0.2116-0.2116,0.39499-0.28214,0.57838c-0.07053,0.18339-2.29942,9.11303-2.29942,9.11303h-3.58315v-0.02821H73.6237z"/>
	<g>
		<polygon points="29.66672,5.69922 33.88467,0.70539 30.27332,0.70539 28.1855,3.17409 		"/>
	</g>
	
		<linearGradient id="SVGID_1_" gradientUnits="userSpaceOnUse" x1="25.88609" y1="34.99396" x2="25.88609" y2="42.18336" gradientTransform="matrix(1 0 0 1 0 -34.94331)">
		<stop  offset="0" style="stop-color:#FAAF40"/>
		<stop  offset="0.2418" style="stop-color:#F8A23B"/>
		<stop  offset="0.6854" style="stop-color:#F4812D"/>
		<stop  offset="1" style="stop-color:#F16522"/>
	</linearGradient>
	<polygon class="st1" points="22.33116,0.00005 25.80144,5.98136 29.44101,5.98136 25.94251,0.00005 	"/>
	
		<linearGradient id="SVGID_2_" gradientUnits="userSpaceOnUse" x1="24.71973" y1="38.06618" x2="28.61658" y2="37.90213" gradientTransform="matrix(1 0 0 1 0 -34.94331)">
		<stop  offset="0" style="stop-color:#FFE0AD"/>
		<stop  offset="0.1536" style="stop-color:#FFDDA8"/>
		<stop  offset="0.3447" style="stop-color:#FED598"/>
		<stop  offset="0.5558" style="stop-color:#FEC77F"/>
		<stop  offset="0.7795" style="stop-color:#FCB55C"/>
		<stop  offset="1" style="stop-color:#FB9E32"/>
	</linearGradient>
	<path class="st2" d="M25.94251,0.00005c0,0-0.78999,1.28372,0.39499,2.89191c1.11444,1.53765,3.10351,3.10351,3.10351,3.10351
		L25.94251,0.00005z"/>
	<g>
		<g>
			<g>
				<defs>
					<polygon id="SVGID_3_" points="22.33116,0.00005 25.80144,5.98136 29.44101,5.98136 25.94251,0.00005 					"/>
				</defs>
				<clipPath id="SVGID_4_">
					<use xlink:href="#SVGID_3_"  style="overflow:visible;"/>
				</clipPath>
				<g class="st3">
					<path d="M25.11021,5.19138c0.02821-0.02821,0.02821-0.04232,0.02821-0.09875c0.60659-2.28531,3.2869-3.54082,3.2869-3.54082
						s-2.58155,0.39499-4.07688,2.2571c-0.07053,0.07053-0.11285,0.16928-0.18339,0.25392
						C24.40487,4.44371,24.72932,4.8246,25.11021,5.19138z"/>
					<path d="M26.36572,1.10039c0,0-1.81978,0.28214-2.97655,1.56586c0.11286,0.29624,0.28214,0.63481,0.50785,0.97337
						C24.43308,2.00323,26.36572,1.10039,26.36572,1.10039z"/>
					<path d="M24.78575,0.79004c0,0-1.04391,0.49374-1.6505,1.39658c-0.07053-0.2116-0.14107-0.42321-0.18339-0.60659
						C23.79827,0.9311,24.78575,0.79004,24.78575,0.79004z"/>
				</g>
			</g>
		</g>
	</g>
	<polygon points="29.6244,6.30582 27.48016,8.84505 29.27173,11.97678 32.9113,11.97678 	"/>
</g>
</svg>
